<mxfile host="app.diagrams.net" modified="2022-03-13T08:15:54.100Z" agent="5.0 (Windows NT 10.0; Win64; x64) AppleWebKit/537.36 (KHTML, like Gecko) Chrome/99.0.4844.51 Safari/537.36" etag="MJ2ER81Fx1BGsZmD4CmV" version="17.1.2" type="github">
  <diagram id="B4vnSId43AtEkDV2eU6S" name="Page-1">
    <mxGraphModel dx="1082" dy="606" grid="1" gridSize="10" guides="1" tooltips="1" connect="1" arrows="1" fold="1" page="1" pageScale="1" pageWidth="850" pageHeight="1100" math="0" shadow="0">
      <root>
        <mxCell id="0" />
        <mxCell id="1" parent="0" />
      </root>
    </mxGraphModel>
  </diagram>
</mxfile>
